<?xml version="1.0" standalone="no"?>
<!DOCTYPE svg PUBLIC "-//W3C//DTD SVG 20010904//EN"
 "http://www.w3.org/TR/2001/REC-SVG-20010904/DTD/svg10.dtd">
<svg version="1.0" xmlns="http://www.w3.org/2000/svg"
 width="241.000000pt" height="241.000000pt" viewBox="0 0 241.000000 241.000000"
 preserveAspectRatio="xMidYMid meet">
<metadata>
Created by potrace 1.11, written by Peter Selinger 2001-2013
</metadata>
<g transform="translate(0.000000,241.000000) scale(0.100000,-0.100000)"
fill="#000000" stroke="none">
<path d="M1070 2299 c0 -3 -15 -6 -32 -7 -42 -2 -63 -6 -118 -22 -25 -7 -49
-13 -55 -15 -14 -3 -44 -15 -82 -31 -17 -8 -36 -14 -42 -14 -6 0 -11 -5 -11
-11 0 -5 -4 -7 -10 -4 -5 3 -10 2 -10 -3 0 -6 -13 -15 -30 -20 -32 -12 -123
-71 -128 -84 -2 -4 -8 -8 -13 -8 -18 0 -189 -167 -189 -185 0 -4 -11 -16 -25
-27 -14 -11 -23 -24 -20 -29 4 -5 1 -9 -5 -9 -6 0 -9 -4 -6 -9 3 -5 -1 -12
-10 -15 -8 -3 -13 -10 -10 -15 3 -5 -1 -12 -10 -15 -8 -3 -13 -10 -10 -15 3
-5 -1 -14 -9 -21 -8 -7 -15 -17 -15 -23 0 -5 -12 -34 -26 -64 -30 -65 -66
-174 -59 -181 3 -3 1 -10 -5 -17 -5 -6 -11 -31 -13 -55 -3 -25 -8 -53 -12 -63
-4 -10 -5 -84 -2 -165 5 -136 9 -178 23 -224 3 -10 7 -30 10 -44 3 -15 9 -35
14 -45 6 -10 10 -27 10 -38 0 -12 5 -21 10 -21 6 0 10 -8 10 -18 0 -10 7 -28
16 -40 8 -12 13 -22 10 -22 -3 0 8 -23 24 -50 17 -28 30 -55 30 -60 0 -6 5
-10 10 -10 6 0 10 -7 10 -15 0 -8 5 -15 10 -15 6 0 9 -4 8 -9 -2 -5 8 -18 21
-30 13 -12 20 -21 16 -21 -4 0 2 -8 13 -19 12 -10 19 -21 15 -25 -3 -3 1 -6
10 -6 8 0 18 -9 22 -19 3 -11 22 -32 42 -48 20 -15 52 -44 72 -63 20 -19 37
-32 38 -30 1 3 12 -4 25 -15 13 -11 25 -21 28 -22 21 -5 60 -28 60 -35 0 -4 8
-8 19 -8 10 0 24 -7 31 -15 6 -8 15 -13 19 -12 6 2 61 -19 116 -45 11 -5 30
-10 43 -11 12 0 22 -6 22 -11 0 -5 2 -7 6 -4 3 3 22 2 42 -3 71 -17 128 -22
242 -21 153 1 200 4 200 13 0 4 9 6 20 4 11 -2 20 0 20 5 0 4 8 7 18 5 9 -1
22 1 27 5 6 5 24 10 40 13 17 2 50 14 75 25 25 11 59 26 77 33 17 7 30 16 28
20 -3 3 14 12 35 19 22 7 40 17 40 22 0 4 7 8 15 8 8 0 15 4 15 8 0 4 15 16
33 27 17 10 47 34 65 52 17 19 32 31 32 26 0 -4 18 12 40 36 21 24 36 49 33
55 -3 6 -3 8 2 4 7 -7 35 14 35 28 0 3 8 14 18 23 10 9 27 32 38 50 10 19 26
43 34 53 8 10 16 22 16 26 5 26 18 52 26 52 5 0 6 5 3 10 -3 6 -1 10 4 10 6 0
10 3 10 8 -1 4 0 10 1 15 1 4 3 10 5 15 1 4 9 23 17 42 9 19 14 38 12 42 -3 5
0 8 6 8 7 0 9 7 6 16 -4 9 -1 23 5 30 6 8 9 21 5 29 -3 8 0 15 5 15 7 0 9 11
7 25 -3 14 -1 25 5 25 5 0 7 13 5 30 -3 16 -1 30 3 30 5 0 6 69 4 153 -4 136
-9 202 -14 202 -4 0 -12 39 -12 55 -1 14 -9 43 -25 85 -4 11 -8 23 -9 28 -2 4
-4 10 -5 15 -1 4 -2 10 -1 15 0 4 -3 7 -7 7 -4 0 -8 10 -9 22 -1 11 -6 24 -10
27 -4 3 -19 29 -33 56 -13 28 -27 52 -30 55 -3 3 -12 17 -20 31 -19 34 -58 86
-87 115 -13 13 -23 27 -23 31 0 5 -14 19 -31 33 -17 14 -47 40 -65 58 -18 17
-38 32 -44 32 -5 0 -10 5 -10 10 0 6 -6 10 -14 10 -8 0 -17 7 -20 16 -3 8 -10
12 -16 9 -5 -3 -10 -2 -10 3 0 13 -212 116 -260 127 -40 9 -117 28 -130 33
-35 12 -340 22 -340 11z"/>
</g>
</svg>
